# xmcd
#
# Track frame offsets:
#	150
#	10087
#	27012
#	38725
#	54637
#	66587
#	80212
#	93225
#	104550
#	122600
#	136375
#	148475
#	157950
#	169237
#	182887
#	196875
#	208225
#
# Disc length: 2963 seconds
#
# Revision: 1
# Processed by: cddbd v1.5.1PL0 Copyright (c) Steve Scherf et al.
# Submitted via: audiograbber 1.83.01
#
DISCID=fa0b9111
DTITLE=Various Artist - Das Wunschkonzert Der Volksmusik Cd 01
DYEAR=1996
DGENRE=Volksmusik Deutsch
TTITLE0=Lolita - Hoch Vom Dachstein An
TTITLE1=Maria and Margot Hellwig - Erzherzog Johann Jodler
TTITLE2=Alfons Bauer Und Das Soundorchester Berlin - La Montanara
TTITLE3=Edith Prock - Die Glocken Von Sankt Bartholomä
TTITLE4=Hansl Krönauer - Mea Patria Montana
TTITLE5=Alfons Bauer Und Wolfg. Lindner M. S. Stadlmusik. Und Chor - Bergsteige
TTITLE5=rmarsch
TTITLE6=Edith Prock - Zillertaler Hochzeitsmarsch
TTITLE7=Marianne Und Michael - Urlaub In den Bergen
TTITLE8=Ricky King - Glocken Der Heimat
TTITLE9=Margot Hellwig and Alfons Bauer M. S. Almdudlern - Bergromanze
TTITLE10=Die 3 Lustigen Moosacher - Rund Um Den Chiemsee
TTITLE11=Alfons Bauer and Seine Almdudler - Hochzeitspolka
TTITLE12=Herlinde - So Klingt's Bei Uns Im Oberland
TTITLE13=Edith Prock - Du Mein Edelweiß
TTITLE14=Männergesangsverein Reit Im Winkl - Ihr Berge Lebt Wohl
TTITLE15=Edith Prock - Echo Der Berge
TTITLE16=Alfons Bauer and Sein Orchester - Blumen Aus Bayern
EXTD=
EXTT0=
EXTT1=
EXTT2=
EXTT3=
EXTT4=
EXTT5=
EXTT6=
EXTT7=
EXTT8=
EXTT9=
EXTT10=
EXTT11=
EXTT12=
EXTT13=
EXTT14=
EXTT15=
EXTT16=
PLAYORDER=
